<?xml version="1.0" encoding="utf-8"?>
<!-- Generator: Adobe Illustrator 24.0.2, SVG Export Plug-In . SVG Version: 6.00 Build 0)  -->
<svg version="1.1" id="Capa_1" xmlns="http://www.w3.org/2000/svg" xmlns:xlink="http://www.w3.org/1999/xlink" x="0px" y="0px"
	 viewBox="0 0 349 349" style="enable-background:new 0 0 349 349;" xml:space="preserve">
<g>
	<path d="M174.5,349C78.3,349,0,270.7,0,174.5C0,78.3,78.3,0,174.5,0S349,78.3,349,174.5C349,270.7,270.7,349,174.5,349z M174.5,14
		C86,14,14,86,14,174.5C14,263,86,335,174.5,335S335,263,335,174.5C335,86,263,14,174.5,14z"/>
</g>
<g>
	<path d="M258.2,182.5l0-15.4l0-66.4c0-5.5-3-8.6-8.5-8.6l-30.3,0c-34.1,0-68.3,0-102.4,0c0,0,0,0,0,0c-2.9,0-5.1,1-7.2,3
		c-7.5,7.6-15.2,15.3-23,23c-2,2-3,4.3-3,7.2c0,34.8,0,69.6,0,104.3v28.3c0,5.7,3,8.7,8.6,8.7h29.1c34.5,0,68.9,0,103.4,0
		c0,0,0,0,0,0c2.9,0,5.3-1,7.3-3.1c8.3-8.4,15.7-15.8,22.7-22.7c2.2-2.1,3.2-4.6,3.2-7.7C258.2,216.3,258.2,199.1,258.2,182.5z
		 M243,230c0,1.1-0.3,1.7-1,2.4c-2.5,2.5-5,4.9-7.6,7.6c-0.2,0.2-0.4,0.4-0.7,0.7l0-3.3c0-35.7,0-72.6,0-108.9
		c0-0.5,0.3-1.3,0.8-1.7c2.6-2.7,5.2-5.3,8-8.1c0.2-0.2,0.3-0.3,0.5-0.5v16.3C242.9,166.3,242.9,198.1,243,230z M135.8,148.1
		c0,5.1,3.2,8.2,8.3,8.2c9.8,0,19.5,0,29.3,0c5.2,0,8.3-3.1,8.3-8.2c0-3.7,0-7.4,0-11.1l0-5.1h36.6v119.2H99.1V132h36.7l0,5.3
		C135.8,140.9,135.8,144.5,135.8,148.1z M109.8,116.6L109.8,116.6c2.9-2.9,5.8-5.8,8.7-8.7c0.3-0.3,0.7-0.5,0.9-0.5
		c9.1,0,18,0,27.5,0l2.7,0c-3.2,3.2-6.2,6.2-9.2,9.1c0,0-0.2,0.1-0.4,0.1c-9.4,0-18.8,0-28.3,0L109.8,116.6z M151.2,141v-9h15.1v9
		H151.2z M174.7,113c-2.5,3.1-5.3,4.2-9,3.7c-0.9-0.1-1.8-0.2-2.8-0.2c-0.3,0-0.6,0-1,0c1.9-1.8,3.7-3.5,5.3-5.5
		c2.5-3.1,5.3-4.2,9-3.7c1.2,0.2,2.5,0.2,3.7,0.1C178.1,109.3,176.3,111,174.7,113z M206.4,116.5c-2.6,0-5.1,0-7.6,0
		c-2.1,0-4.3,0-6.4,0l0.1-0.1c3.1-3.1,6-6,8.9-8.9c0.1-0.1,0.3-0.2,0.4-0.2c10.1,0,20.1,0,30.2,0c-1.8,1.7-3.6,3.4-5.1,5.3
		c-2.5,3.1-5.3,4.3-9.8,4.1C213.6,116.6,210,116.5,206.4,116.5z"/>
	<path d="M114.4,191.6c0,2.4,1.2,4.7,3.4,6.4c1.3,1,2.6,2,4,3l7,5.3c4.2,3.2,8.6,6.5,12.9,9.7c2.3,1.7,5.1,2.1,7.5,1.2
		c2.4-0.9,4.1-2.8,4.7-5.4c0.8-3.2-0.3-6-3.1-8.1l-5.9-4.4c2.3,0,4.6,0,6.9,0c9,0,17.6-0.1,26.3,0.1c2.5,0,4.8,1.1,6.7,3
		c2,2.1,3.1,5,3.1,8c-0.1,5.5-4.7,10.2-10.3,10.4c-1.1,0-2.3,0-3.4,0c-1.1,0-2.2,0-3.2,0c-4.2,0.1-7.5,3.5-7.5,7.6
		c0,4.2,3.3,7.5,7.6,7.6c1.4,0,2.6,0,3.8,0c1.4,0,2.6,0,3.8-0.1c13.1-0.5,24.1-11.6,24.6-24.7c0.3-7.3-2.3-14.1-7.2-19.3
		c-4.9-5.1-11.6-8-18.8-8c-7.9,0-15.8,0-23.6,0c-2.8,0-5.6,0-8.4,0c1.9-1.5,3.9-2.9,5.8-4.4c3.6-2.8,4.4-7.4,1.8-10.8
		c-1.2-1.7-3-2.7-4.9-3c-2.1-0.3-4.3,0.3-6.2,1.7c-7,5.2-15.2,11.4-23.7,17.8C115.6,186.9,114.4,189.2,114.4,191.6z"/>
</g>
</svg>
