<?xml version="1.0" encoding="utf-8"?>
<!-- Generator: Adobe Illustrator 24.0.2, SVG Export Plug-In . SVG Version: 6.00 Build 0)  -->
<svg version="1.1" id="Capa_1" xmlns="http://www.w3.org/2000/svg" xmlns:xlink="http://www.w3.org/1999/xlink" x="0px" y="0px"
	 viewBox="0 0 349 349" style="enable-background:new 0 0 349 349;" xml:space="preserve">
<g>
	<g>
		<path d="M349,174.5c0,96.2-78.3,174.5-174.5,174.5C78.3,349,0,270.7,0,174.5S78.3,0,174.5,0C270.7,0,349,78.3,349,174.5z
			 M14,174.5C14,263,86,335,174.5,335C263,335,335,263,335,174.5S263,14,174.5,14C86,14,14,86,14,174.5z"/>
	</g>
	<g>
		<path d="M256.2,133.3L256.2,133.3c-1.8-2-4.1-3.1-6.7-3.1H114.3l-4.1-21.7c-1.8-8.5-9.5-14.7-18.5-14.7H71.1c-3,0-5.4,2.4-5.4,5.4
			c0,3,2.4,5.4,5.4,5.4h20.7c3.6,0,7.1,2.8,7.8,6.2l22.6,119.1c1.8,7.7,8.6,13.3,16.3,13.3h95.3c3,0,5.4-2.4,5.4-5.4
			s-2.4-5.4-5.4-5.4h-95.3c-2.6,0-5.2-2-5.8-4.4l-1.6-9.1h100.5c3.7,0,7-2.5,8-6.2l18-71.9C258.3,138,257.8,135.4,256.2,133.3z
			 M246.5,140.9L229.7,208H128.9l-12.7-67.1H246.5z"/>
		<circle cx="152.5" cy="263.2" r="11.4"/>
		<path d="M210.9,251.7c-6.3,0-11.4,5.1-11.4,11.4s5.1,11.4,11.4,11.4c6.3,0,11.4-5.1,11.4-11.4S217.2,251.7,210.9,251.7z"/>
		<path d="M141.6,196.8c3,0,5.4-2.4,5.4-5.4v-34c0-3-2.4-5.4-5.4-5.4c-3,0-5.4,2.4-5.4,5.4v34C136.2,194.4,138.6,196.8,141.6,196.8z
			"/>
		<path d="M161,196.8c3,0,5.4-2.4,5.4-5.4v-34c0-3-2.4-5.4-5.4-5.4s-5.4,2.4-5.4,5.4v34C155.7,194.4,158.1,196.8,161,196.8z"/>
		<path d="M180.5,196.8c3,0,5.4-2.4,5.4-5.4v-34c0-3-2.4-5.4-5.4-5.4s-5.4,2.4-5.4,5.4v34C175.1,194.4,177.5,196.8,180.5,196.8z"/>
		<path d="M199.9,196.8c3,0,5.4-2.4,5.4-5.4v-34c0-3-2.4-5.4-5.4-5.4c-3,0-5.4,2.4-5.4,5.4v34C194.6,194.4,197,196.8,199.9,196.8z"
			/>
		<path d="M219.4,196.8c3,0,5.4-2.4,5.4-5.4v-34c0-3-2.4-5.4-5.4-5.4s-5.4,2.4-5.4,5.4v34C214,194.4,216.4,196.8,219.4,196.8z"/>
	</g>
</g>
</svg>
