<?xml version="1.0" encoding="utf-8"?>
<!-- Generator: Adobe Illustrator 24.0.2, SVG Export Plug-In . SVG Version: 6.00 Build 0)  -->
<svg version="1.1" id="Capa_1" xmlns="http://www.w3.org/2000/svg" xmlns:xlink="http://www.w3.org/1999/xlink" x="0px" y="0px"
	 viewBox="0 0 349 349" style="enable-background:new 0 0 349 349;" xml:space="preserve">
<g>
	<g>
		<path d="M348.8,174.7c0,96.2-78.3,174.5-174.5,174.5c-96.2,0-174.5-78.3-174.5-174.5S78.1,0.2,174.3,0.2
			C270.5,0.2,348.8,78.5,348.8,174.7z M13.8,174.7c0,88.5,72,160.5,160.5,160.5c88.5,0,160.5-72,160.5-160.5s-72-160.5-160.5-160.5
			C85.8,14.2,13.8,86.2,13.8,174.7z"/>
	</g>
	<path d="M303.5,124.4L303.5,124.4c-0.5-0.7-1-1.3-1.5-1.9c-1.5-1.8-2-2.5-2.4-3.8c-1.5-4.8-5.2-8-9.2-8c-1,0-2,0.2-3,0.6
		c-2.3,1-8.3,3.8-8.1,10.1c0.2,5.4-0.6,6.3-0.6,6.3c-1.6,1.2-2.8,1.2-4.9,1.4c-3.1,0.2-7.1,0.5-11.8,4.3c-2.2,1.8-3.3,3.7-4,5
		c-0.9,1.6-1.4,2.4-4.7,3.8c-4.3,1.8-5.4,5.4-6,7.3c-0.1,0.2-0.2,0.7-0.3,0.9c-1.2,1-2.4,2-3.5,2.8c0.5-4.1-1-7-4.9-9.2
		c-0.4-0.2-0.7-0.4-0.9-0.6c-0.4-0.4-0.9-0.8-1.3-1.3l-0.2-0.2c-3.2-3.1-5.9-5.8-9.4-5.8c-0.4,0-1,0.1-1.3,0.1c-1.1,0.2-2,0.6-2.8,1
		c0.8-1.8,1.2-3.7,0.3-5.8c-0.4-1-1.8-3.5-5.6-3.9c-2.6-0.3-3.4-1.1-3.9-1.8c-1.1-1.2-2.6-1.9-4.3-1.9c-2.6,0-4.2,1.6-5.8,3.1
		c-2,1.9-2.8,2.3-3,2.3c-0.2-0.1-0.3-0.1-0.5-0.2c0-0.3,0.1-0.9,0.3-1.6c0.4-1.7,1.3-6.4-2.9-8.7c-1.8-1-3.9-1.2-6.2-1.3
		c-1.1-0.1-4.4-0.3-4.9-0.9c-1-1.3-2.8-3.4-6-3.4c-1.1,0-1.9,0.3-2.7,0.5c-1.3,0.4-3.9,1.1-10.9,0.7c-7.4-0.5-10.6-0.5-12.9-0.5
		c-2.4,0-3.8,0-8.8-0.6c-10.2-1.1-37.9-5.5-50.1-8.4c-10.8-2.6-18.2-4.4-20.1-5.1c-3.6-1.2-6.6-1.8-9.1-1.8c-4.3,0-6.7,1.8-7.9,3.2
		c-1.8,2.1-2.4,4.9-1.8,8.2c0.8,4.8-0.7,8.3-1.6,10c-8.1,14.7-14.5,33.7-14.9,36.1c-1,5.3,1,8.6,2.3,10.8c0.8,1.3,1.3,2.2,1.6,3.6
		c0.8,5.5,2.4,9.5,3.7,12.6c1.1,2.9,2.1,5.2,2.1,7.9c0,0.2,0,0.3,0,0.5l0,0.1c-0.5,4.6,1.3,7.4,6.8,11.3c5.1,3.6,6.5,5.9,7.3,7.8
		c0,0.1,0.1,0.3,0.1,0.6c1.3,6.1,6.1,6.7,11.3,6.7c1.4,0,2.6,0,3.4,0c2.2,2.7,5.7,5,10.6,7c2.2,0.9,3.4,1.7,4.7,2.6
		c3.6,2.4,6.6,3.9,16.4,5.1c1.9,0.2,3.7-0.6,4.8-2.1c1,0.1,2.1,0.1,3,0.2l0.4,0.6c1.6,2.1,3.8,5.1,6.3,6.9c0.1,0.2,0.4,1,0.5,1.4
		c0.7,2.2,2.1,6.4,7.5,8.7c1.6,0.7,3.1,1,4.5,1c3.6,0,5.7-2.1,6.8-3.2c0.2-0.2,0.3-0.3,0.4-0.3c0,0,0,0,0,0c0.3,0.5,0.8,1.6,1.1,2.3
		c0.5,1,1,2.2,1.7,3.6c0.5,0.9,0.9,1.9,1.4,3l0.1,0.2c3.3,7.3,7.9,17.3,18,17.3c2.6,0,4.2-1.3,4.9-2.1c2.1-2.4,1.9-5.8,1.4-9.3
		c-0.2-1.4,0-3,2.6-4.3c4.8-2.3,7.5-4.6,9.8-6.4c1.3-1.1,2.3-1.9,3.4-2.5c0.1,0,0.2,0,0.5,0c2.5,0,7,1.5,10,2.9
		c2.8,1.3,6,2.1,8.9,2.1c6,0,7.4-3.4,7.8-4.9c0.6-2.3-0.2-5.3-0.8-7.1c1.2,0.2,2.8,0.5,5.1,1.2c4.1,1.2,6.9,1.4,8.9,1.4
		c0.7,0,1.4,0,2.1-0.1l0.3,0c1.6-0.1,2.9-0.1,5.1,0.6c1.2,0.4,3,3.1,3.1,4.3c0.9,10.3,6.6,24.7,16.5,24.7c1.6,0,3.2-0.4,4.7-1.3
		c2.1-1.2,6.8-5,5.4-13.8c-0.9-5.7-3.1-11.4-5.3-17c-2.2-5.7-5.6-14.4-3.5-15.8c0.9-0.7,2-1.4,3-2.1c10.5-7.2,26.3-18,18.9-32.4
		c-0.9-1.9-0.4-5.6,1.5-9.8c2.9-6.5,2.8-11.7,2.8-15.2c0-0.5,0-1.2,0-1.8c1.4-0.7,3.5-1.5,5.3-2.3c3.6-1.4,5.7-2.3,7.1-3.6
		c1.6-1.5,2.5-3.6,2.4-5.7c-0.1-2.6-1.5-5.1-4.1-7.4c0.2-1.1,1.4-4,5.7-7.3c0.3-0.2,0.5-0.4,0.8-0.5c1.6-1,4.1-2.7,4.7-6.1
		C305.7,128.5,305.1,126.4,303.5,124.4z M217.7,155.8c0.3,2.1,0.2,3.4,0.1,4.2c-0.1-0.1-0.3-0.3-0.4-0.6c-1.2-2-1.8-6.2,0.1-12.1
		C217.1,150.6,217.5,153.8,217.7,155.8z M273.1,165.3c0,2.8,0.1,6.4-1.9,10.8c-2.3,5.1-4.3,12.6-1.2,18.7c3,5.8-5.3,12.1-15.5,19.2
		l-0.5,0.3c-0.9,0.6-1.8,1.2-2.7,1.8c-8.7,6.1-4.4,17.3-0.2,28.1c2,5.1,4,10.3,4.7,14.9c0.2,1.2,0.2,2.3-0.1,2.8
		c-1.6-1.3-5.2-7.1-5.9-15c-0.4-4.8-4.6-11.3-10.1-13.2c-3.2-1.1-5.6-1.3-7.2-1.3c-0.7,0-1.3,0-2,0.1l-0.5,0
		c-1.7,0.1-3.4,0.2-7.1-0.9c-4-1.2-7.2-1.7-9.8-1.7c-5.1,0-7.5,2.2-8.6,4.1c-1.4,2.3-1.3,5-0.6,7.2c-0.2-0.1-0.4-0.2-0.6-0.3
		c-1.4-0.6-8.5-3.9-14.4-3.9c-1.9,0-3.5,0.3-4.8,1c-2.4,1.1-4.1,2.5-5.7,3.9c-1.9,1.6-3.9,3.2-7.6,5c-5.1,2.4-8.1,6.7-8.5,11.8
		c-1.7-2.3-3.2-5.6-4.4-8.3c-0.5-1.2-1.1-2.5-1.7-3.6c-0.6-1.2-1.1-2.2-1.5-3.2l0-0.1c-1.8-4-3.7-8.2-10.9-8.4
		c-3.9,0-6.2,2.2-7.3,3.3c-1-0.4-1.1-0.6-1.6-2.3c-0.6-1.8-1.5-4.5-4.2-6.5c-1.3-1-3.1-3.3-4.3-4.8c-2-2.6-3.5-4.6-6.4-4.6
		c-0.5,0-4-0.2-7.6-0.5c-1.7-0.1-3.4,0.6-4.4,1.9c-5.5-0.8-6.9-1.8-8.9-3c-1.5-1-3.3-2.2-6.5-3.5c-5.1-2.1-6.3-3.7-6.8-4.4
		c-0.2-0.3-0.5-0.6-0.8-1c-1.8-2.5-4.3-2.5-10.4-2.5c-0.6,0-1.1,0-1.5,0c-0.1-0.4-0.3-0.8-0.4-1.1c-1.5-3.4-3.9-7.2-10.8-12
		c-1.4-0.9-2.1-1.6-2.4-1.9c0-0.5,0.1-1.1,0.1-1.7c-0.1-4.6-1.4-7.9-2.8-11.5c-1.2-3-2.4-6-3-10.4c-0.5-3.5-2-5.9-3-7.4
		c-1-1.7-1.3-2.1-1-3.3c0.4-1.9,6.3-19.5,13.8-33.1c1.5-2.8,3.9-8.5,2.9-16.1c1,0.1,2.6,0.4,5.2,1.3c2.4,0.8,9.5,2.6,21.1,5.4
		c12.5,3,40.9,7.5,51.4,8.6c5.5,0.6,7.4,0.6,9.9,0.6c2.3,0,5.1,0,12.2,0.5c6.9,0.5,10.7-0.1,13-0.7c3.1,3,7.3,3.5,10.7,3.8
		c-0.6,6.4,3.2,9.5,6.6,11c1.3,0.6,2.7,0.9,4.2,0.9c3.8,0,6.7-2,8.9-4c0.4,0.3,0.9,0.5,1.3,0.7c-0.5,0.6-0.9,1.3-1.2,2
		c-4.6,10.4-5,20-1,26.3c2.2,3.5,5.5,5.5,9,5.6c0.1,0,0.4,0,0.4,0c3.8,0,6.2-1.7,7.4-3.1c2.5-2.8,3.3-6.9,2.6-12.9
		c-0.3-2.9-0.4-4.9-0.3-6.1c0.4,0.4,0.8,0.8,1.2,1.1c0.5,0.5,1.1,1.1,1.6,1.6c0.8,0.8,1.7,1.4,2.4,1.8c-0.1,0.4-0.3,1-0.6,1.8
		c-1.8,4.2-1.9,7.5-0.2,9.9c1.7,2.6,4.8,3.5,8.2,2.5c3.2-0.9,7.7-3.9,13.6-8.9c2.1-1.8,2.9-4.2,3.3-5.6c0.1-0.2,0.2-0.7,0.3-0.9
		c5.9-2.5,7.9-5.3,9.5-8.2c0.6-1,0.9-1.5,1.6-2.1c2.2-1.8,3.5-1.8,5.9-2c2.6-0.2,6.2-0.4,10.3-3.3c4.9-3.5,5.1-10.3,4.9-14
		c1,2.8,2.4,4.7,3.9,6.5c0,0-0.1,0.1-0.1,0.1l0,0c-6.1,4.6-9.8,10.5-9.8,15.8c0,2.5,0.8,4.8,2.3,6.4c-0.4,0.1-0.7,0.3-1.1,0.4
		c-2.6,1-5.6,2.2-7.8,3.5C273,157.6,273.1,162.1,273.1,165.3z"/>
</g>
</svg>
