<?xml version="1.0" encoding="utf-8"?>
<!-- Generator: Adobe Illustrator 24.0.2, SVG Export Plug-In . SVG Version: 6.00 Build 0)  -->
<svg version="1.1" id="Capa_1" xmlns="http://www.w3.org/2000/svg" xmlns:xlink="http://www.w3.org/1999/xlink" x="0px" y="0px"
	 viewBox="0 0 349 349" style="enable-background:new 0 0 349 349;" xml:space="preserve">
<g>
	<path d="M349,174.5c0,96.2-78.3,174.5-174.5,174.5C78.3,349,0,270.7,0,174.5S78.3,0,174.5,0C270.7,0,349,78.3,349,174.5z M14,174.5
		C14,263,86,335,174.5,335C263,335,335,263,335,174.5S263,14,174.5,14C86,14,14,86,14,174.5z"/>
</g>
<g>
	<path d="M307.3,115.2c-4.5-10.5-27.6-6.4-34-3.7l-66.8,29.8l-18-5.3l18.1-8.2l-3.2-7.4l-26.6,12.3l-41-12l-0.5-0.2l-20.9,9.1
		l43.2,33.6L109.1,185l-36.9-19.1l-0.6-0.3l-25.1,11.1l12.6,12.6l-4.1,2l3.2,7l6.7-3.2l6.6,6.6l-22.8,10.3l3.2,7.4l29-13v6.6
		l43.5-1.4c6.8-0.4,13.2-1.8,19-4.4l29.4-13l3.7,50.7l-2.8-6.2l-43.1,19.3l3.2,7.3l42.7-19.1l1.5,20.6l29-13l22.4-85.1l57.6-25.7
		c5.1-2,16.5-10.9,20-19.4C308.2,120.3,308.3,117.6,307.3,115.2z M81.1,187.7l-3.2-7l-11.3,5.1l-6.4-6.6l11.3-5.1l28.5,14.7
		l-20.9,9.2l-6.6-6.4L81.1,187.7z M168.3,145.2l9.1-4.4l17.9,5.3l-29.7,13.1l-35.9-27.9l6.1-2.7l29.9,8.8l-0.7,0.3L168.3,145.2z
		 M273,132.6l19-8.8l-3.2-7.4l-16.3,7.3l-4.2-1.7l8.2-3.3c2.4-1.2,8.4-2.5,14.2-2.5c6.6,0,8.9,1.6,9.2,2.1c0.2,0.4,0.1,1-0.2,1.8
		c-1.9,5-10.6,13.1-15.5,15.3L231.9,159l0.3-1.4l-7.4-2.1l-1.1,3.4l-1.3,5l-1.3,5.9l-20.6,78.4l-15.2,6.8l-4.8-65.4l-0.3-5.3
		l-0.5-4.9l-7.5,1.1v5.3l-32.1,14.4c-5.1,2.2-10.6,3.5-16.3,3.8l-39.8,0.9L258.1,127L273,132.6z"/>
	<polygon points="228.9,178.9 232.2,186.1 281.5,163.6 282.9,163 279.6,155.8 	"/>
	<rect x="76.9" y="227.7" transform="matrix(0.9132 -0.4076 0.4076 0.9132 -83.8322 69.7982)" width="90" height="7.9"/>
	<polygon points="145,107.2 145.9,106.8 142.6,99.6 62.6,135.4 61.7,135.8 64.9,143.1 	"/>
	<polygon points="111.2,138.7 107.9,131.5 27,167.7 30.2,175 110.3,139.2 	"/>
	<rect x="224.7" y="192.1" transform="matrix(0.9174 -0.3979 0.3979 0.9174 -58.1175 112.15)" width="33" height="7.9"/>
</g>
</svg>
