<?xml version="1.0" encoding="utf-8"?>
<!-- Generator: Adobe Illustrator 24.0.2, SVG Export Plug-In . SVG Version: 6.00 Build 0)  -->
<svg version="1.1" id="Capa_1" xmlns="http://www.w3.org/2000/svg" xmlns:xlink="http://www.w3.org/1999/xlink" x="0px" y="0px"
	 viewBox="0 0 349 349" style="enable-background:new 0 0 349 349;" xml:space="preserve">
<g>
	<path d="M349,174.5c0,96.2-78.3,174.5-174.5,174.5C78.3,349,0,270.7,0,174.5S78.3,0,174.5,0C270.7,0,349,78.3,349,174.5z M14,174.5
		C14,263,86,335,174.5,335C263,335,335,263,335,174.5S263,14,174.5,14C86,14,14,86,14,174.5z"/>
</g>
<g>
	<path d="M136.3,123.3c1.1,3.9,2.7,7.7,4.9,11.1l29.6,46.2c1.3,2,4,2.6,6.1,1.3c0.5-0.3,1-0.8,1.3-1.3l29.6-46.2
		c4.1-6.5,6.3-14,6.3-21.7c0-21.9-17.7-39.7-39.6-39.7c-21.9,0-39.7,17.7-39.7,39.6C134.8,116.2,135.3,119.8,136.3,123.3z
		 M174.5,81.3c17.2,0.2,31,14.2,30.8,31.4c0,6-1.7,11.9-4.9,17l-25.9,40.4l-25.9-40.4c-3.2-5.1-4.9-11-5-17
		C143.5,95.5,157.3,81.5,174.5,81.3z"/>
	<path d="M174.5,129.8c9.7,0,17.6-7.9,17.6-17.6s-7.9-17.6-17.6-17.6c-9.7,0-17.6,7.9-17.6,17.6
		C156.9,121.9,164.8,129.8,174.5,129.8z M174.5,103.4c4.9,0,8.8,3.9,8.8,8.8s-3.9,8.8-8.8,8.8s-8.8-3.9-8.8-8.8c0,0,0,0,0,0
		C165.7,107.3,169.6,103.4,174.5,103.4z"/>
	<path d="M246,171.1c0.8,2.9,2,5.7,3.5,8.3l20.4,32.1c1.3,2.1,4,2.7,6.1,1.4c0.5-0.3,1-0.8,1.4-1.4l20.4-32.2
		c3-4.7,4.5-10.2,4.6-15.8c0.1-15.8-12.7-28.7-28.5-28.8c-15.8-0.1-28.7,12.7-28.8,28.5C245,165.9,245.3,168.5,246,171.1z
		 M273.6,143c11.1,0.2,20,9.4,19.8,20.5c0,3.9-1.1,7.8-3.2,11.1l-16.6,26.3L257,174.6c-2.1-3.3-3.2-7.2-3.2-11.1
		C253.6,152.4,262.5,143.2,273.6,143z"/>
	<path d="M273.6,176.1c7.3,0,13.2-5.9,13.2-13.2s-5.9-13.2-13.2-13.2c-7.3,0-13.2,5.9-13.2,13.2
		C260.4,170.2,266.3,176.1,273.6,176.1z M273.6,158.5c2.4,0,4.4,2,4.4,4.4s-2,4.4-4.4,4.4s-4.4-2-4.4-4.4
		C269.2,160.4,271.2,158.5,273.6,158.5z"/>
	<path d="M47.7,171.1c0.8,2.9,2,5.7,3.6,8.3l20.4,32.1c1.3,2.1,4,2.7,6.1,1.4c0.5-0.3,1-0.8,1.4-1.4l20.4-32.2
		c3-4.7,4.5-10.2,4.6-15.8c0.2-16-12.7-29.1-28.6-29.3c-16,0.2-28.8,13.3-28.6,29.3C46.7,166.1,47.1,168.6,47.7,171.1z M75.4,143
		c11.1,0.2,20,9.4,19.8,20.5c0,3.9-1.1,7.8-3.2,11.1l-16.6,26.3l-16.6-26.2c-2.1-3.3-3.2-7.2-3.2-11.1
		C55.4,152.4,64.2,143.2,75.4,143z"/>
	<path d="M75.4,176.1c7.3,0,13.2-5.9,13.2-13.2s-5.9-13.2-13.2-13.2c-7.3,0-13.2,5.9-13.2,13.2C62.1,170.2,68.1,176.1,75.4,176.1z
		 M75.4,158.5c2.4,0,4.4,2,4.4,4.4s-2,4.4-4.4,4.4s-4.4-2-4.4-4.4C70.9,160.4,72.9,158.5,75.4,158.5z"/>
	<path d="M314,223.4l-20.1-21.5l-4.9,7.7l11.9,12.7h-62.5l-6.8-17.6h23.6l-5.6-8.8h-24.5c-2.4,0-4.4,2-4.4,4.4
		c0,0.5,0.1,1.1,0.3,1.6l7.9,20.4h-50v-31.6c-2.8,1-6,1-8.8,0v9.6h-40l22.4-31.9l-5-7.7l-5.6-8.8H111c0.9,2.9,1.5,5.8,1.7,8.8h34.4
		l-12.3,17.6h-24.9c-0.8,2-1.8,3.9-2.9,5.7l-2,3.1h23.6L118,202.2c-1.4,2-0.9,4.7,1.1,6.1c0.7,0.5,1.6,0.8,2.5,0.8h48.5v13.2h-122
		L60,209.6l-4.9-7.7c0,0-20.4,21.8-20.5,21.8c-1.6,1.8-1.5,4.6,0.3,6.3c0.8,0.7,1.8,1.1,2.9,1.1h273.3c2.5-0.1,4.4-2.1,4.3-4.6
		C315.4,225.4,314.9,224.2,314,223.4z"/>
	<path d="M238,151.8h-30.9l-5.6,8.8h10.2l6.7,15.4h-26.8l-5.6,8.8h39.2c2.4,0,4.4-2,4.4-4.4c0-0.6-0.1-1.2-0.4-1.8l-7.9-18.1h15
		C236.5,157.7,237.1,154.7,238,151.8z"/>
</g>
</svg>
