<?xml version="1.0" encoding="utf-8"?>
<!-- Generator: Adobe Illustrator 24.0.2, SVG Export Plug-In . SVG Version: 6.00 Build 0)  -->
<svg version="1.1" id="Capa_1" xmlns="http://www.w3.org/2000/svg" xmlns:xlink="http://www.w3.org/1999/xlink" x="0px" y="0px"
	 viewBox="0 0 349 349" style="enable-background:new 0 0 349 349;" xml:space="preserve">
<style type="text/css">
	.st0{fill:#FFFFFF;}
</style>
<g>
	<g>
		<path class="st0" d="M349,174.5c0,96.2-78.3,174.5-174.5,174.5C78.3,349,0,270.7,0,174.5S78.3,0,174.5,0
			C270.7,0,349,78.3,349,174.5z M14,174.5C14,263,86,335,174.5,335C263,335,335,263,335,174.5S263,14,174.5,14C86,14,14,86,14,174.5
			z"/>
	</g>
	<g>
		<path class="st0" d="M251.7,133.4c0-1.5,0-3,0-4.5v-0.3c0-0.7-0.1-1.3-0.3-1.9l-0.1-0.3c0,0,0,0,0,0l0-0.2c-0.4-1.2-1-2.2-1.9-3.1
			L215,88.8c-0.1-0.1-0.2-0.1-0.2-0.2l-0.2-0.2c-0.1-0.1-0.2-0.2-0.2-0.2c-0.9-0.8-1.9-1.3-3-1.6c-0.7-0.2-1.4-0.3-2.1-0.4h-95.1
			c-2,0-3.9,0.1-5.8,0.7c-6.6,2.2-10.9,8-10.9,14.9c0,1.4,0,2.8,0,4.2l0,128.4l0,0.4c0,0.3,0,0.7,0,1c0.1,3.8,2.7,5.9,4.7,7.5
			c0.3,0.3,0.6,0.5,1,0.8c5.4,4.5,10.8,9,16.2,13.5l3.6,3c1.1,0.9,2.9,2.2,5.1,2.2c0.1,0,0.2,0,0.3,0c1.9-0.1,3.6-0.8,5.2-2.1
			l17.8-14.7l14.9,12.4c0.5,0.4,1,0.8,1.4,1.2c0.5,0.4,1,0.8,1.4,1.2c1.2,1,3,2.3,5.4,2.1c1.9-0.1,3.6-0.8,5.2-2.1l17.8-14.7
			l14.9,12.4c0.5,0.4,1,0.8,1.4,1.2c0.5,0.4,1,0.8,1.4,1.2c1.2,1,3,2.3,5.4,2.1c1.9-0.1,3.6-0.8,5.2-2.1c3.2-2.7,6.4-5.3,9.7-8
			l4.4-3.6c2.8-2.3,5.6-4.6,8.3-6.9c2-1.7,3.1-3.9,3.2-6.4c0-0.5,0-1,0-1.6l0-0.7L251.7,133.4z M217,121v-8.2l8.2,8.2H217z
			 M201.5,128.8c0,1.7,0.7,3.4,1.8,4.7c0.5,0.6,1,1.1,1.6,1.5c1.1,0.7,2.3,1.2,3.5,1.3l0.1,0c0.2,0,0.5,0,0.7,0h27v86.2
			c0,1.4,0,2.8,0,4.3c0,1.8,0,3.6,0,5.4L220.8,245l-14.9-12.4c-0.5-0.4-0.9-0.8-1.4-1.2c-0.5-0.4-1-0.8-1.5-1.2
			c-1.8-1.5-3.6-2.2-5.4-2.1c-1.9,0.1-3.6,0.8-5.2,2.1L174.5,245l-14.9-12.4c-0.5-0.4-1-0.8-1.4-1.2c-0.5-0.4-1-0.8-1.4-1.2
			c-1.2-1-3-2.3-5.4-2.1c-1.9,0.1-3.6,0.8-5.2,2.1L128.2,245l-15.4-12.8V101.9l0-0.1c0,0,0,0,0-0.1c0,0,0,0,0,0c0,0,0,0,0.1,0
			c0.5,0,1,0,1.5,0l82.9,0c1.3,0,2.7,0,4,0l0.2,0l0,26.8l0,0.1L201.5,128.8z"/>
		<path class="st0" d="M212,192.9h-65.8c-1,0-2,0-3,0c-2,0-4.1,0-6.1,0H137c-2.1,0-4.1,0.9-5.7,2.5c-1.4,1.5-2.2,3.4-2.1,5.4
			c0.2,4.3,3.6,7.7,7.7,7.7h65.8c1,0,2,0,3,0c1,0,2,0,3.1,0c1,0,2,0,3,0h0.1c2.1,0,4.1-0.9,5.7-2.5c1.4-1.5,2.2-3.4,2.1-5.4
			C219.6,196.3,216.2,192.9,212,192.9z"/>
		<path class="st0" d="M137,153.3h42.8c2.1,0,4.1-0.9,5.7-2.5c1.4-1.5,2.2-3.4,2.1-5.4c-0.2-4.3-3.6-7.7-7.7-7.7H137
			c-2.1,0-4.1,0.9-5.7,2.5c-1.4,1.5-2.2,3.4-2.1,5.4C129.5,150,132.9,153.3,137,153.3z"/>
		<path class="st0" d="M143.2,165.4c-2,0-4.1,0-6.1,0H137c-2.1,0-4.1,0.9-5.7,2.5c-1.4,1.5-2.2,3.4-2.1,5.4c0.2,4.3,3.6,7.7,7.7,7.7
			h65.8c1,0,2,0,3,0c1,0,2,0,3.1,0c1,0,2,0,3,0h0.1c2.1,0,4.1-0.9,5.7-2.5c1.4-1.5,2.2-3.4,2.1-5.4c-0.2-4.3-3.6-7.7-7.7-7.7h-65.8
			C145.3,165.4,144.3,165.4,143.2,165.4z"/>
	</g>
</g>
</svg>
