<?xml version="1.0" encoding="UTF-8" standalone="no"?>
<!-- Uploaded to: SVG Repo, www.svgrepo.com, Transformed by: SVG Repo Mixer Tools -->

<svg
   width="800px"
   height="800px"
   viewBox="0 0 16 16"
   fill="none"
   version="1.1"
   id="svg172"
   sodipodi:docname="checkmark-circle-white-background.svg"
   inkscape:version="1.2.2 (b0a8486541, 2022-12-01)"
   xmlns:inkscape="http://www.inkscape.org/namespaces/inkscape"
   xmlns:sodipodi="http://sodipodi.sourceforge.net/DTD/sodipodi-0.dtd"
   xmlns="http://www.w3.org/2000/svg"
   xmlns:svg="http://www.w3.org/2000/svg">
  <defs
     id="defs176" />
  <sodipodi:namedview
     id="namedview174"
     pagecolor="#ffffff"
     bordercolor="#cccccc"
     borderopacity="1"
     inkscape:showpageshadow="0"
     inkscape:pageopacity="1"
     inkscape:pagecheckerboard="0"
     inkscape:deskcolor="#d1d1d1"
     showgrid="false"
     inkscape:zoom="1.035"
     inkscape:cx="379.22705"
     inkscape:cy="400"
     inkscape:window-width="1920"
     inkscape:window-height="1030"
     inkscape:window-x="0"
     inkscape:window-y="0"
     inkscape:window-maximized="1"
     inkscape:current-layer="svg172" />
  <g
     id="SVGRepo_bgCarrier"
     stroke-width="0" />
  <g
     id="SVGRepo_iconCarrier">
    <g
       fill="#5425de"
       id="g169">
      <path
         d="m 11.78,5.22 a 0.75,0.75 0 0 1 0,1.06 l -4.5,4.5 a 0.75,0.75 0 0 1 -1.06,0 l -2,-2 A 0.75,0.75 0 0 1 5.28,7.72 l 1.47,1.47 3.97,-3.97 a 0.75,0.75 0 0 1 1.06,0 z"
         id="path165" />
      <path
         fill-rule="evenodd"
         d="M 0,8 A 8,8 0 1 1 16,8 8,8 0 0 1 0,8 Z M 8,1.5 a 6.5,6.5 0 1 0 0,13 6.5,6.5 0 0 0 0,-13 z"
         clip-rule="evenodd"
         id="path167"
         style="display:inline" />
    </g>
  </g>
  <path
     style="fill:#ffffff;stroke:none;stroke-width:0.967701"
     d="M 369.08213,723.09228 C 348.42766,720.94044 329.73605,717.32353 309.30872,711.52584 272.50759,701.08093 232.15473,680.30188 199.5198,654.99181 186.01601,644.51893 158.1994,617.10092 147.53774,603.75463 108.08312,554.36523 83.804235,495.64929 77.325205,433.953 c -1.901429,-18.10628 -1.900475,-49.77675 0.002,-68.03845 6.373584,-61.17792 30.611665,-119.92755 69.830435,-169.25891 9.43483,-11.86761 37.63034,-40.06312 49.49795,-49.49795 49.31854,-39.20858 108.09688,-63.458507 169.25891,-69.830435 18.25998,-1.902346 49.91092,-1.902346 68.1709,0 61.26275,6.382422 119.85914,30.557285 169.25891,69.830435 12.34779,9.81658 40.27752,37.86131 50.22007,50.42685 36.80621,46.51626 59.80281,100.40253 68.24061,159.90338 2.06321,14.54907 2.90575,55.14245 1.46302,70.48729 -3.94235,41.93057 -14.54394,79.66955 -32.52076,115.76564 -10.66546,21.41548 -20.31064,36.71455 -35.77269,56.74224 -10.32104,13.36864 -37.74898,41.20607 -51.10988,51.87294 -51.0163,40.7296 -108.86368,64.23091 -174.25695,70.7943 -11.56122,1.16038 -49.17682,1.1243 -60.52565,-0.0581 z M 348.37536,548.707 c 2.8863,-0.844 7.20435,-2.78446 9.59565,-4.31212 2.39131,-1.52766 56.55995,-55.07624 120.37476,-118.99685 110.04319,-110.22563 116.17106,-116.54317 118.82189,-122.49948 2.43847,-5.47911 2.79736,-7.45099 2.81366,-15.45894 0.0169,-8.31765 -0.26464,-9.76791 -3.00136,-15.45893 -4.41982,-9.19108 -8.92505,-13.84435 -17.51344,-18.08896 -7.06828,-3.49333 -7.80294,-3.64987 -17.09757,-3.64314 -17.05829,0.0124 -6.53444,-9.14884 -122.5056,106.64304 l -102.16563,102.00769 -38.89717,-38.7009 c -35.24911,-35.07127 -39.45881,-38.94628 -44.88565,-41.31709 -19.16147,-8.37097 -40.46452,-0.38947 -49.8639,18.68223 -2.82561,5.73324 -3.08224,7.03222 -3.05411,15.45893 0.0575,17.24081 -3.38886,12.83109 58.77997,75.21004 29.82804,29.92885 56.0963,55.52283 58.3739,56.8755 8.72784,5.18347 20.15338,6.54396 30.2246,3.59898 z"
     id="path575"
     transform="scale(0.02)" />
</svg>
