<?xml version="1.0" encoding="utf-8"?>
<!-- Generator: Adobe Illustrator 24.0.2, SVG Export Plug-In . SVG Version: 6.00 Build 0)  -->
<svg version="1.1" id="Capa_1" xmlns="http://www.w3.org/2000/svg" xmlns:xlink="http://www.w3.org/1999/xlink" x="0px" y="0px"
	 viewBox="0 0 349 349" style="enable-background:new 0 0 349 349;" xml:space="preserve">
<style type="text/css">
	.st0{fill:#FFFFFF;}
</style>
<g>
	<g>
		<path class="st0" d="M349,174.5c0,96.2-78.3,174.5-174.5,174.5S0,270.7,0,174.5S78.3,0,174.5,0S349,78.3,349,174.5z M14,174.5
			C14,263,86,335,174.5,335S335,263,335,174.5S263,14,174.5,14S14,86,14,174.5z"/>
	</g>
	<g>
		<path class="st0" d="M174.5,174.5c-46.2,0-83.2,37-83.2,83.2c0,5.5,3.7,9.2,9.2,9.2h148c5.5,0,9.2-3.7,9.2-9.2
			C257.7,211.5,220.7,174.5,174.5,174.5z M110.7,248.5c4.6-31.4,31.4-55.5,63.8-55.5s59.2,24,63.8,55.5H110.7z"/>
		<path class="st0" d="M174.5,165.3c23.1,0,41.6-18.5,41.6-41.6S197.6,82,174.5,82s-41.6,18.5-41.6,41.6S151.4,165.3,174.5,165.3z
			 M174.5,100.5c12.9,0,23.1,10.2,23.1,23.1s-10.2,23.1-23.1,23.1s-23.1-10.2-23.1-23.1S161.6,100.5,174.5,100.5z"/>
	</g>
</g>
</svg>
