<?xml version="1.0" encoding="utf-8"?>
<!-- Generator: Adobe Illustrator 24.0.2, SVG Export Plug-In . SVG Version: 6.00 Build 0)  -->
<svg version="1.1" id="Capa_1" xmlns="http://www.w3.org/2000/svg" xmlns:xlink="http://www.w3.org/1999/xlink" x="0px" y="0px"
	 viewBox="0 0 349 349" style="enable-background:new 0 0 349 349;" xml:space="preserve">
<g>
	<path d="M349.1,174.5c0,96.2-78.3,174.5-174.5,174.5C78.4,349,0.1,270.7,0.1,174.5S78.4,0,174.6,0C270.9,0,349.1,78.3,349.1,174.5z
		 M14.1,174.5c0,88.5,72,160.5,160.5,160.5c88.5,0,160.5-72,160.5-160.5S263.1,14,174.6,14C86.1,14,14.1,86,14.1,174.5z"/>
</g>
<g>
	<g>
		<path d="M267,85.1H82.3c-8.2,0-14.9,6.7-14.9,14.9v125.5c0,8.2,6.7,14.9,14.9,14.9h68.6c-2.2,9.2-10.1,15.7-17.3,21.6
			c-5.9,4.8-11,9.1-11.6,14.5c-0.1,0.3-0.1,0.7-0.1,1.1c0,2.8,2.2,5.1,5,5.1c0.1,0,0.2,0,0.4,0h95.1c2.8,0,5-2.2,5-5
			c0-0.4,0-0.7-0.1-1.1c-0.6-5.4-5.7-9.7-11.6-14.5c-7.2-5.9-15.1-12.4-17.3-21.6H267c8.2,0,14.9-6.7,14.9-14.9V99.9
			C281.9,91.7,275.2,85.1,267,85.1z M82.3,95.1H267c2.7,0,4.9,2.2,4.9,4.9v97.8H77.4V99.9C77.4,97.3,79.6,95.1,82.3,95.1z
			 M209.3,269.7c1,0.8,2.2,1.8,3.4,2.8h-76.1c1.2-1,2.4-2,3.4-2.8c8.1-6.7,19-15.6,21.1-29.4h27.1
			C190.4,254.1,201.2,263,209.3,269.7z M267,230.3H82.3c-2.7,0-4.9-2.2-4.9-4.9v-17.7h194.4v17.7C271.9,228.1,269.7,230.3,267,230.3
			z"/>
		<circle cx="174.6" cy="219" r="6.7"/>
	</g>
	<g>
		<path d="M239.1,165H106.7c-5.4,0-9.7-4.4-9.7-9.7v-39.6c0-5.3,4.4-9.7,9.7-9.7h132.4c5.3,0,9.7,4.4,9.7,9.7v39.6
			C248.8,160.7,244.5,165,239.1,165z M106.7,113c-1.5,0-2.7,1.2-2.7,2.7v39.6c0,1.5,1.2,2.7,2.7,2.7h132.4c1.5,0,2.7-1.2,2.7-2.7
			v-39.6c0-1.5-1.2-2.7-2.7-2.7H106.7z"/>
	</g>
	<path d="M240,185h-45.6c-4.3,0-7.9-3.5-7.9-7.9v-0.6c0-4.3,3.5-7.9,7.9-7.9H240c4.3,0,7.9,3.5,7.9,7.9v0.6
		C247.8,181.5,244.3,185,240,185z"/>
</g>
</svg>
