<?xml version="1.0" encoding="utf-8"?>
<!-- Generator: Adobe Illustrator 24.0.2, SVG Export Plug-In . SVG Version: 6.00 Build 0)  -->
<svg version="1.1" id="Capa_1" xmlns="http://www.w3.org/2000/svg" xmlns:xlink="http://www.w3.org/1999/xlink" x="0px" y="0px"
	 viewBox="0 0 349 349" style="enable-background:new 0 0 349 349;" xml:space="preserve">
<style type="text/css">
	.st0{fill-rule:evenodd;clip-rule:evenodd;}
</style>
<g>
	<path d="M349,174.5c0,96.2-78.3,174.5-174.5,174.5C78.3,349,0,270.7,0,174.5S78.3,0,174.5,0C270.7,0,349,78.3,349,174.5z M14,174.5
		C14,263,86,335,174.5,335C263,335,335,263,335,174.5S263,14,174.5,14C86,14,14,86,14,174.5z"/>
</g>
<g>
	<path d="M185.8,174.5c0-6.3-5.1-11.3-11.3-11.3s-11.3,5.1-11.3,11.3c0,6.3,5.1,11.3,11.3,11.3S185.8,180.8,185.8,174.5z"/>
	<path class="st0" d="M208.5,174.5c0-18.8-15.2-34-34-34s-34,15.2-34,34s15.2,34,34,34S208.5,193.3,208.5,174.5z M197.1,174.5
		c0-12.5-10.1-22.6-22.6-22.6s-22.6,10.1-22.6,22.6s10.1,22.6,22.6,22.6S197.1,187,197.1,174.5z"/>
	<path class="st0" d="M283.7,140.5c0-16.5-13.4-30-30-30H95.3c-16.5,0-30,13.4-30,30v67.9c0,16.5,13.4,30,30,30h158.4
		c16.5,0,30-13.4,30-30V140.5z M269,208.5c0,8.4-6.9,15.3-15.3,15.3H95.3c-8.4,0-15.3-6.9-15.3-15.3v-15.3h4c4,0,7.3-3.3,7.3-7.3
		v-22.6c0-4-3.3-7.3-7.3-7.3h-4v-15.3c0-8.4,6.9-15.3,15.3-15.3h158.4c8.4,0,15.3,6.9,15.3,15.3V208.5z"/>
</g>
</svg>
