<?xml version="1.0" encoding="utf-8"?>
<!-- Generator: Adobe Illustrator 24.0.2, SVG Export Plug-In . SVG Version: 6.00 Build 0)  -->
<svg version="1.1" id="Capa_1" xmlns="http://www.w3.org/2000/svg" xmlns:xlink="http://www.w3.org/1999/xlink" x="0px" y="0px"
	 viewBox="0 0 349 349" style="enable-background:new 0 0 349 349;" xml:space="preserve">
<style type="text/css">
	.st0{fill-rule:evenodd;clip-rule:evenodd;}
</style>
<g>
	<g>
		<path d="M349,174.5c0,96.2-78.3,174.5-174.5,174.5C78.3,349,0,270.7,0,174.5S78.3,0,174.5,0C270.7,0,349,78.3,349,174.5z
			 M14,174.5C14,263,86,335,174.5,335C263,335,335,263,335,174.5S263,14,174.5,14C86,14,14,86,14,174.5z"/>
	</g>
	<g>
		<path d="M171.3,222h-4.7c-5.2,0-9.5,4.3-9.5,9.5v4.7c0,5.2,4.3,9.5,9.5,9.5h4.7c5.2,0,9.5-4.3,9.5-9.5v-4.7
			C180.8,226.3,176.5,222,171.3,222z M172.2,236.2c0,0.5-0.4,1-1,1h-4.7c-0.5,0-1-0.4-1-1v-4.7c0-0.5,0.4-1,1-1h4.7c0.5,0,1,0.4,1,1
			V236.2z"/>
		<path d="M160.4,99.5h17.1c2.4,0,4.3-1.9,4.3-4.3c0-2.4-1.9-4.3-4.3-4.3h-17.1c-2.4,0-4.3,1.9-4.3,4.3
			C156.1,97.6,158,99.5,160.4,99.5z"/>
		<path d="M224.6,171.2V96.4c0-10.4-8.5-18.9-18.9-18.9h-73.5c-10.4,0-18.9,8.5-18.9,18.9v32c-0.9,0.6-1.7,1.2-2.4,1.9
			c-2.7,2.8-4.3,6.4-4.3,10.3c0,4,1.6,7.6,4.3,10.3c0,0,0,0,0,0c-2.7,2.8-4.3,6.4-4.3,10.3c0,4,1.6,7.6,4.3,10.3c0,0,0,0,0,0
			c-2.7,2.8-4.3,6.4-4.3,10.3c0,4,1.6,7.6,4.3,10.3c0,0,0,0,0,0c-2.7,2.7-4.3,6.4-4.3,10.3c0,5,2.5,9.5,6.6,12.2v29.7
			c0,10.4,8.5,18.9,18.9,18.9h5.2c4.3,14.3,13.2,16.6,18.3,16.6h4.8l5.1,16.7c0.5,1.8,2.2,3,4.1,3H236c1.4,0,2.7-0.7,3.5-1.8
			c0.8-1.1,1-2.5,0.6-3.8l-6.9-21c7.3-6.5,11.7-19.8,11.7-30c0-33.7-5.1-43.1-17.3-66C226.7,175.2,225.6,173.2,224.6,171.2z
			 M140.5,202.5c0,1.6-0.6,3.1-1.7,4.2c-1.2,1.2-2.7,1.8-4.3,1.8h-13.2c-0.8,0-1.5-0.1-2.2-0.4c-2.4-0.9-3.9-3.1-3.9-5.6
			c0-1.6,0.6-3.1,1.8-4.3c0.5-0.6,1.3-1,2.1-1.3c0.6-0.3,1.4-0.4,2.2-0.4h13.2C137.8,196.4,140.5,199.1,140.5,202.5z M140.5,181.8
			c0,1.6-0.6,3.1-1.7,4.2c-1.2,1.2-2.7,1.8-4.3,1.8h-13.2c-0.8,0-1.5-0.1-2.1-0.4c-2.4-0.9-3.9-3.1-3.9-5.7c0-1.6,0.6-3.1,1.8-4.3
			c0.5-0.6,1.3-1,2.1-1.3c0.6-0.3,1.4-0.4,2.2-0.4h13.2C137.8,175.8,140.5,178.5,140.5,181.8z M140.5,161.2c0,1.6-0.6,3.1-1.7,4.2
			c-1.2,1.2-2.7,1.8-4.3,1.8h-13.2c-0.8,0-1.5-0.1-2.1-0.4c-2.4-0.9-3.9-3.1-3.9-5.7c0-1.6,0.6-3.1,1.8-4.3c0.5-0.6,1.3-1,2.1-1.3
			c0.6-0.3,1.4-0.4,2.2-0.4h13.2C137.8,155.2,140.5,157.9,140.5,161.2z M138.8,144.9c-1.2,1.2-2.7,1.8-4.3,1.8h-13.2
			c-0.8,0-1.5-0.1-2.1-0.4c-2.4-0.9-3.9-3.1-3.9-5.7c0-1.6,0.6-3.1,1.8-4.3c0.5-0.6,1.3-1,2.1-1.3c0.6-0.3,1.4-0.4,2.2-0.4h13.2
			c3.3,0,6,2.7,6,6C140.5,142.2,139.9,143.8,138.8,144.9z M121.8,244.3V217h12.6c3.9,0,7.5-1.5,10.3-4.3c2.8-2.8,4.3-6.4,4.3-10.3
			c0-4-1.6-7.7-4.3-10.3l0,0c2.8-2.8,4.3-6.4,4.3-10.3c0-4-1.6-7.7-4.3-10.3l0,0c2.8-2.8,4.3-6.4,4.3-10.3c0-1-0.1-2-0.3-2.9
			c0-0.1-0.1-0.2-0.1-0.3c-0.2-0.9-0.4-1.7-0.8-2.5c0,0,0-0.1,0-0.1c-0.7-1.7-1.8-3.2-3.1-4.5c0,0,0,0,0,0c2.7-2.8,4.3-6.4,4.3-10.3
			c0-8-6.5-14.6-14.6-14.6h-12.6V96.4c0-5.7,4.7-10.4,10.4-10.4h73.5c5.7,0,10.4,4.7,10.4,10.4v68c0,0-0.1,0-0.1,0
			c-0.5-0.2-1-0.3-1.6-0.4c-0.3-0.1-0.5-0.1-0.8-0.2c-0.5-0.1-1.1-0.1-1.7-0.2c-0.3,0-0.5-0.1-0.8-0.1c-0.6,0-1.2,0-1.8,0.1
			c-0.2,0-0.4,0-0.7,0c-0.8,0.1-1.6,0.3-2.5,0.5c-6.4,1.7-11,6.8-12.1,13.3c0,0.1,0,0.1,0,0.2l-0.5,3c-0.5,3.4,0,6.9,1.4,10
			l21.1,44.1v9.5c0,5.4-4.2,9.9-9.5,10.3c-0.1,0-0.3,0-0.4,0c-0.2,0-0.3,0-0.5,0h-65h-8.4C126.5,254.7,121.8,250,121.8,244.3z
			 M172.9,291l-3.4-11.2h41.9c1.6,0,3.1-0.1,4.6-0.3c0.4,0,0.9-0.1,1.3-0.2c1.1-0.2,2.3-0.4,3.4-0.6c0.4-0.1,0.8-0.2,1.1-0.3
			c1.3-0.3,2.6-0.7,3.8-1.2l4.5,13.7H172.9z M226,267.6c-4.1,2.4-9.1,3.6-14.6,3.6h-47.7h-8c-4.1,0-7.2-2.7-9.3-8h59.3
			c0.6,0,1.1,0,1.7-0.1c0.4,0,0.8-0.1,1.2-0.2c0.2,0,0.4,0,0.6-0.1c0.1,0,0.1,0,0.2,0c7.5-1.5,13.4-7.5,14.9-15
			c0.2-1.2,0.3-2.4,0.3-3.6v-10.5c0-0.6-0.1-1.3-0.4-1.8l-21.5-45c-0.7-1.5-1-3.3-0.7-5l0.5-3c0,0,0,0,0,0c0.5-3.3,2.8-5.8,6-6.6
			c0.4-0.1,0.8-0.2,1.2-0.2c0.2,0,0.3,0,0.5,0c0.2,0,0.5,0,0.7,0c0.2,0,0.3,0,0.5,0c0.2,0,0.4,0,0.6,0.1c0.2,0,0.3,0.1,0.5,0.1
			c0.2,0,0.4,0.1,0.6,0.1c0.2,0.1,0.3,0.1,0.5,0.2c0.2,0.1,0.4,0.1,0.6,0.2c0.2,0.1,0.3,0.2,0.5,0.3c0.2,0.1,0.4,0.2,0.5,0.3
			c0.2,0.1,0.3,0.2,0.4,0.3c0.2,0.1,0.3,0.2,0.5,0.4c0.1,0.1,0.3,0.3,0.4,0.4c0.1,0.1,0.2,0.2,0.3,0.4c1.2,2.2,2.3,4.3,3.3,6.2
			c11.9,22.1,16.3,30.4,16.3,61.9C236.4,251.6,231.9,264.3,226,267.6z"/>
		<g>
			<ellipse transform="matrix(0.9732 -0.2298 0.2298 0.9732 -30.0546 43.6136)" cx="172.3" cy="150.9" rx="5.5" ry="5.5"/>
			<path d="M185.2,141.1c-0.3-0.8-0.7-1.3-1.2-1.9c-0.6-0.6-1.1-0.9-1.9-1.2c-0.6-0.2-1.5-0.5-3.1-0.6c-1.7-0.1-2.3-0.1-6.7-0.1
				s-4.9,0-6.7,0.1c-1.6,0.1-2.5,0.3-3.1,0.6c-0.8,0.3-1.3,0.7-1.9,1.2c-0.6,0.6-0.9,1.1-1.2,1.9c-0.2,0.6-0.5,1.5-0.6,3.1
				c-0.1,1.7-0.1,2.3-0.1,6.7c0,4.4,0,4.9,0.1,6.7c0.1,1.6,0.3,2.5,0.6,3.1c0.3,0.8,0.7,1.3,1.2,1.9c0.6,0.6,1.1,0.9,1.9,1.2
				c0.6,0.2,1.5,0.5,3.1,0.6c1.7,0.1,2.3,0.1,6.7,0.1c4.4,0,4.9,0,6.7-0.1c1.6-0.1,2.5-0.3,3.1-0.6c0.8-0.3,1.3-0.7,1.9-1.2
				c0.6-0.6,0.9-1.1,1.2-1.9c0.2-0.6,0.5-1.5,0.6-3.1c0.1-1.7,0.1-2.3,0.1-6.7c0-4.4,0-4.9-0.1-6.7
				C185.7,142.6,185.4,141.7,185.2,141.1z M172.3,159.4c-4.7,0-8.5-3.8-8.5-8.5c0-4.7,3.8-8.5,8.5-8.5s8.5,3.8,8.5,8.5
				C180.8,155.6,177,159.4,172.3,159.4z M181.1,144c-1.1,0-2-0.9-2-2c0-1.1,0.9-2,2-2c1.1,0,2,0.9,2,2
				C183.1,143.1,182.2,144,181.1,144z"/>
			<path d="M172.3,124.5c-14.5,0-26.3,11.8-26.3,26.3c0,14.5,11.8,26.3,26.3,26.3c14.5,0,26.3-11.8,26.3-26.3
				C198.6,136.3,186.8,124.5,172.3,124.5z M188.7,157.7c-0.1,1.8-0.4,3-0.8,4c-0.4,1.1-1,2-1.9,2.9c-0.9,0.9-1.8,1.5-2.9,1.9
				c-1.1,0.4-2.3,0.7-4,0.8c-1.8,0.1-2.3,0.1-6.8,0.1c-4.5,0-5.1,0-6.8-0.1c-1.8-0.1-3-0.4-4-0.8c-1.1-0.4-2-1-2.9-1.9
				c-0.9-0.9-1.5-1.8-1.9-2.9c-0.4-1.1-0.7-2.3-0.8-4c-0.1-1.8-0.1-2.3-0.1-6.8c0-4.5,0-5.1,0.1-6.8c0.1-1.8,0.4-3,0.8-4
				c0.4-1.1,1-2,1.9-2.9c0.9-0.9,1.8-1.5,2.9-1.9c1.1-0.4,2.3-0.7,4-0.8c1.8-0.1,2.3-0.1,6.8-0.1c4.5,0,5.1,0,6.8,0.1
				c1.8,0.1,3,0.4,4,0.8c1.1,0.4,2,1,2.9,1.9c0.9,0.9,1.5,1.8,1.9,2.9c0.4,1.1,0.7,2.3,0.8,4c0.1,1.8,0.1,2.3,0.1,6.8
				S188.8,155.9,188.7,157.7z"/>
		</g>
		<path class="st0" d="M259.7,140.8c-14.5,0-26.2,11.7-26.2,26.2s11.7,26.2,26.2,26.2c14.5,0,26.2-11.7,26.2-26.2
			S274.2,140.8,259.7,140.8z M274.2,161.4c0,0.3,0,0.6,0,0.9c0,9.2-7,19.8-19.8,19.8c-3.9,0-7.6-1.2-10.7-3.1
			c0.5,0.1,1.1,0.1,1.7,0.1c3.3,0,6.3-1.1,8.6-3c-3-0.1-5.6-2.1-6.5-4.8c0.4,0.1,0.9,0.1,1.3,0.1c0.6,0,1.2-0.1,1.8-0.2
			c-3.2-0.6-5.6-3.4-5.6-6.8c0,0,0-0.1,0-0.1c0.9,0.5,2,0.8,3.1,0.9c-1.9-1.2-3.1-3.4-3.1-5.8c0-1.3,0.3-2.5,0.9-3.5
			c3.4,4.2,8.6,7,14.3,7.3c-0.1-0.5-0.2-1-0.2-1.6c0-3.8,3.1-7,7-7c2,0,3.8,0.8,5.1,2.2c1.6-0.3,3.1-0.9,4.4-1.7
			c-0.5,1.6-1.6,3-3.1,3.8c1.4-0.2,2.7-0.5,4-1.1C276.7,159.2,275.6,160.4,274.2,161.4z"/>
		<path d="M77.5,75.1c-14.4,0-26.1,11.7-26.1,26.1c0,13,9.5,23.8,22,25.8v-18.2h-6.6v-7.5h6.6v-5.7c0-6.5,3.9-10.2,9.9-10.2
			c2.9,0,5.8,0.5,5.8,0.5v6.4h-3.3c-3.2,0-4.3,2-4.3,4.1v4.9h7.2l-1.2,7.5h-6.1V127c12.5-2,22-12.8,22-25.8
			C103.6,86.8,91.9,75.1,77.5,75.1z"/>
		<g>
			<path d="M83,176c-1.2,1.2-3.7,1.6-5.5,1.6c-1.8,0-4.3-0.4-5.5-1.6c-0.3-0.3-0.7-0.3-1,0c-0.3,0.3-0.3,0.7,0,1
				c1.9,1.9,5.4,2,6.5,2c1,0,4.6-0.1,6.5-2c0.3-0.3,0.3-0.7,0-1C83.7,175.7,83.2,175.7,83,176z"/>
			<path d="M74.2,169.7c0-1.5-1.2-2.7-2.7-2.7c-1.5,0-2.7,1.2-2.7,2.7c0,1.5,1.2,2.7,2.7,2.7C73,172.5,74.2,171.3,74.2,169.7z"/>
			<path d="M83.5,167c-1.5,0-2.7,1.2-2.7,2.7c0,1.5,1.2,2.7,2.7,2.7c1.5,0,2.7-1.2,2.7-2.7C86.2,168.2,85,167,83.5,167z"/>
			<path d="M77.5,140.8c-14.5,0-26.2,11.7-26.2,26.2c0,14.5,11.7,26.2,26.2,26.2c14.5,0,26.2-11.7,26.2-26.2
				C103.7,152.6,91.9,140.8,77.5,140.8z M92.7,170.5c0.1,0.4,0.1,0.8,0.1,1.1c0,5.9-6.8,10.6-15.3,10.6s-15.3-4.8-15.3-10.6
				c0-0.4,0-0.8,0.1-1.2c-1.3-0.6-2.3-1.9-2.3-3.5c0-2.1,1.7-3.8,3.8-3.8c1,0,2,0.4,2.6,1.1c2.6-1.9,6.3-3.1,10.4-3.2l1.9-9.1
				c0-0.2,0.1-0.3,0.3-0.4c0.2-0.1,0.3-0.1,0.5-0.1l6.3,1.3c0.4-0.9,1.4-1.5,2.4-1.5c1.5,0,2.7,1.2,2.7,2.7c0,1.5-1.2,2.7-2.7,2.7
				c-1.5,0-2.6-1.2-2.7-2.6l-5.7-1.2l-1.7,8.2c4,0.1,7.6,1.4,10.2,3.2c0.7-0.7,1.6-1.1,2.6-1.1c2.1,0,3.8,1.7,3.8,3.8
				C94.9,168.6,94,169.9,92.7,170.5z"/>
		</g>
		<g>
			<path class="st0" d="M75.6,238.4l4.5-4.5h5.1l5.1-5.1v-14H69.8v19.1h5.7V238.4z M83.8,219.2h2.6v7.7h-2.6V219.2z M76.8,219.2h2.6
				v7.7h-2.6V219.2z"/>
			<path class="st0" d="M77.5,202.3c-14.3,0-25.8,11.6-25.8,25.8c0,14.3,11.6,25.8,25.8,25.8s25.8-11.6,25.8-25.8
				C103.3,213.9,91.7,202.3,77.5,202.3z M92.8,230.1l-11.5,11.5h-5.1l-6.4,6.4v-6.4h-7.7v-23l6.4-6.4h24.2V230.1z"/>
		</g>
		<g>
			<path d="M259.7,74.8c-14.5,0-26.2,11.7-26.2,26.2c0,14.5,11.7,26.2,26.2,26.2c14.5,0,26.2-11.7,26.2-26.2
				C285.9,86.6,274.2,74.8,259.7,74.8z M276.5,109.4c-0.4,1.5-1.6,2.7-3.1,3.1c-2.7,0.7-13.6,0.7-13.6,0.7s-10.9,0-13.6-0.7
				c-1.5-0.4-2.7-1.6-3.1-3.1c-0.7-2.7-0.7-8.4-0.7-8.4s0-5.7,0.7-8.4c0.4-1.5,1.6-2.7,3.1-3.1c2.7-0.7,13.6-0.7,13.6-0.7
				s10.9,0,13.6,0.7c1.5,0.4,2.7,1.6,3.1,3.1c0.7,2.7,0.7,8.4,0.7,8.4S277.2,106.7,276.5,109.4z"/>
			<polygon points="256.2,106.3 265.3,101 256.2,95.8 			"/>
		</g>
	</g>
</g>
</svg>
